<?xml version="1.0" encoding="utf-8"?>
<!-- Generator: Adobe Illustrator 19.2.1, SVG Export Plug-In . SVG Version: 6.00 Build 0)  -->
<svg version="1.1" id="Layer_1" xmlns="http://www.w3.org/2000/svg" xmlns:xlink="http://www.w3.org/1999/xlink" x="0px" y="0px"
	 viewBox="0 0 150.061 150" style="enable-background:new 0 0 150.061 150;" xml:space="preserve">
<style type="text/css">
	.st0{display:none;fill:none;stroke:#FFFFFF;stroke-width:2;stroke-linecap:round;stroke-miterlimit:10;}
	.st1{fill:#9D2106;}
	.st2{fill:#822104;}
	.st3{fill:#951B05;}
	.st4{fill:#FFFFFF;}
	.st5{fill:#8A1F0C;}
	.st6{fill:#E2E3E4;}
	.st7{fill:#6DA2C8;}
	.st8{fill:#D6E6EF;}
	.st9{fill:#B49CB5;}
	.st10{fill:#AC9EB6;}
	.st11{fill:#EBF3F7;}
	.st12{fill:#A69FB5;}
	.st13{fill:#B99FB5;}
	.st14{fill:#D093FB;}
	.st15{fill:#45F8B9;}
	.st16{fill:#41E8A3;}
	.st17{fill:#3072AA;}
	.st18{fill:#FD9E99;}
	.st19{fill:#9ED098;}
	.st20{fill:#75C5B6;}
	.st21{fill:#8DB485;}
	.st22{fill:#5AB49E;}
	.st23{fill:#E4E5E6;}
	.st24{fill:#788782;}
	.st25{fill:#CFD1D2;}
	.st26{fill:#BABCBE;}
	.st27{fill:#998379;}
	.st28{fill:#826D64;}
	.st29{fill:#EFF0F0;}
	.st30{fill:#58515B;}
	.st31{fill:#B98BD2;}
	.st32{fill:#9756AC;}
	.st33{fill:#814497;}
	.st34{fill:#25B598;}
	.st35{fill:#008B84;}
	.st36{fill:#7BE4C2;}
	.st37{fill:#25A48D;}
	.st38{fill:#68DAB4;}
	.st39{fill:#9CFFB4;}
	.st40{fill:#4D5CEA;}
	.st41{fill:#FF9B95;}
	.st42{fill:#FF868C;}
	.st43{fill:#FF6B77;}
	.st44{fill:#EF85FF;}
	.st45{fill:#C44FD7;}
	.st46{fill:#006838;}
	.st47{fill:#005E26;}
	.st48{fill:#5D3A47;}
	.st49{fill:#FFBC13;}
	.st50{fill:#808083;}
	.st51{fill:#56C681;}
	.st52{fill:#6D6E71;}
	.st53{fill:#D3951D;}
	.st54{fill:#3FB068;}
	.st55{fill:#FBEEEE;}
	.st56{fill:#FBF0F1;}
	.st57{fill:#F9E7E8;}
	.st58{fill:#F5D9DB;}
	.st59{fill:#F1C9CC;}
	.st60{fill:#44A468;}
	.st61{fill:#389D61;}
	.st62{fill:#E7A1A5;}
	.st63{fill:#2DAB5B;}
	.st64{fill:#4EC5FF;}
	.st65{fill:#3EA2FF;}
	.st66{fill:#00774E;}
	.st67{fill:#673DAB;}
	.st68{fill:#DEFF5C;}
	.st69{fill:#00BFE0;}
	.st70{fill:#E1329F;}
	.st71{fill:#00BAA3;}
	.st72{fill:#00DCA3;}
	.st73{fill:#00A9E0;}
	.st74{fill:#FF329F;}
	.st75{fill:#FD76A2;}
	.st76{fill:#E76899;}
	.st77{fill:#A37550;}
	.st78{fill:#956744;}
	.st79{fill:#504239;}
	.st80{fill:#FD86AE;}
	.st81{fill:#F5A7D6;}
	.st82{fill:#A54A78;}
	.st83{fill:#D898FF;}
	.st84{fill:#76DDED;}
	.st85{fill:#D888FF;}
	.st86{fill:#715D94;}
	.st87{fill:#52A871;}
	.st88{fill:#F9CA40;}
	.st89{fill:#F9B240;}
	.st90{fill:#919396;}
	.st91{fill:none;stroke:#7CACCD;stroke-width:2;stroke-linecap:round;stroke-linejoin:round;stroke-miterlimit:10;}
	.st92{fill:#1C75BA;}
	.st93{fill:#726658;}
	.st94{fill:#138B38;}
	.st95{fill:#675D50;}
	.st96{fill:#13A138;}
	.st97{fill:#C5C7C8;}
	.st98{fill:#224463;}
	.st99{fill:#594A42;}
	.st100{fill:#1C65AC;}
	.st101{fill:#A5A7AA;}
	.st102{fill:#007E38;}
	.st103{fill:#8F6764;}
	.st104{fill:#7F5C59;}
	.st105{fill:#A47572;}
	.st106{fill:#845F5C;}
	.st107{fill:#86615E;}
	.st108{fill:#AF7C79;}
	.st109{fill:#996E6B;}
	.st110{fill:#996D6A;}
	.st111{fill:#735758;}
	.st112{fill:#906742;}
	.st113{fill:#EEEFEF;}
	.st114{fill:#CED0D1;}
	.st115{fill:#E3E4E5;}
	.st116{fill:#81593D;}
	.st117{fill:#57342B;}
	.st118{fill:#F4911E;}
	.st119{fill:#EE5A29;}
	.st120{fill:#58595B;}
	.st121{fill:#A3D3E3;}
	.st122{fill:#DD840D;}
	.st123{fill:#B9BBBD;}
	.st124{fill:#D44B29;}
	.st125{fill:#C2E2ED;}
	.st126{fill:#4A4C4F;}
	.st127{fill:#414042;}
	.st128{fill:#D67CDB;}
	.st129{fill:#D995E5;}
	.st130{fill:#9E00A0;}
	.st131{fill:#91E0E2;}
	.st132{fill:#F9CFD3;}
	.st133{fill:#7DCED5;}
	.st134{fill:#ECEDED;}
	.st135{fill:#F9BCC1;}
	.st136{fill:#514337;}
</style>
<g>
	<path class="st131" d="M82.951,119.55c0,0,0,0-0.01-0.01c-0.03-0.06-0.06-0.12-0.1-0.19c0.59,0.43,1.14,0.9,1.65,1.42
		c0.74,0.76,1.73,1.23,2.79,1.23h0.03c5.32,0,9.64-4.25,9.75-9.54c5.53-5.14,9-12.49,9-20.64v-8.35c0-4.87-1.23-9.46-3.4-13.46
		c0.13-0.01,0.26-0.01,0.4-0.01c0.01,0,0.02,0,0.04,0c2.37,0.01,4.54-1.32,5.37-3.54l1.1-2.92l8.69-22.95
		c1.06-2.85-0.03-6.13-2.76-7.74c-2.78-1.64-6.38-0.79-8.38,1.74l-1.45,1.87c0,0.01,0,0.01-0.01,0.02l-16.32,21.16l-0.01,0.01
		c-2.51-1.14-5.22-1.91-8.06-2.25c0,0,0-0.01-0.01,0c-1.15-0.16-2.32-0.23-3.51-0.23h-5.45c-4.11,0-8.02,0.88-11.54,2.46l-0.01-0.01
		l-16.29-21.14c-0.01-0.01-0.01-0.01-0.01-0.02l-1.45-1.87c-2-2.53-5.6-3.38-8.38-1.74c-2.73,1.61-3.82,4.89-2.76,7.74l8.68,22.95
		l1.11,2.92c0.83,2.22,3,3.55,5.37,3.54c0.01,0,0.03,0,0.04,0c0.11,0,0.22,0,0.33,0.01c-2.17,4-3.4,8.59-3.4,13.46v8.35
		c0,8.7,3.94,16.48,10.14,21.64h0.01c0.59,4.82,4.69,8.54,9.67,8.54h0.03c1.06,0,2.05-0.47,2.79-1.23c0.5-0.51,1.04-0.98,1.62-1.39
		c-0.05,0.11-0.11,0.22-0.17,0.32c-0.01,0.02-0.02,0.04-0.03,0.06c1.2,0.16,2.42,0.24,3.66,0.24h0.46h5.77
		c1.44,0,2.85-0.11,4.23-0.33C82.431,119.64,82.691,119.6,82.951,119.55z M75.131,1c40.9,0,74.06,33.16,74.06,74.07
		c0,40.9-33.16,74.06-74.06,74.06c-40.91,0-74.07-33.16-74.07-74.06C1.061,34.16,34.221,1,75.131,1z"/>
	<path class="st4" d="M108.471,66.46c-0.83,2.22-3,3.55-5.37,3.54c-0.02,0-0.03,0-0.04,0c-0.14,0-0.27,0-0.4,0.01
		c-2.95-5.45-7.64-9.82-13.33-12.36l0.01-0.01l16.32-21.16c-1.02,3-1.6,6.35-1.6,9.87c0,6.76,2.12,12.87,5.51,17.19L108.471,66.46z"
		/>
	<path class="st4" d="M106.061,91.82c0,8.15-3.47,15.5-9,20.64c0-0.07,0-0.14,0-0.21v-3.54c0-9.78-7.93-17.71-17.71-17.71h-1.16
		c3.46-6.32,5.44-13.56,5.44-21.28c0-4.99-0.84-9.84-2.36-14.32c2.84,0.34,5.55,1.11,8.06,2.25c5.69,2.54,10.38,6.91,13.33,12.36
		c2.17,4,3.4,8.59,3.4,13.46V91.82z M97.561,84.5c0-3.04-2.46-5.5-5.5-5.5s-5.5,2.46-5.5,5.5s2.46,5.5,5.5,5.5
		S97.561,87.54,97.561,84.5z"/>
	<path class="st99" d="M54.131,113.46c-6.2-5.16-10.14-12.94-10.14-21.64v-8.35c0-4.87,1.23-9.46,3.4-13.46
		c2.96-5.46,7.67-9.84,13.37-12.38c3.52-1.58,7.43-2.46,11.54-2.46h5.45c1.19,0,2.36,0.07,3.51,0.23c0.01-0.01,0.01,0,0.01,0
		c1.52,4.48,2.36,9.33,2.36,14.32c0,7.72-1.98,14.96-5.44,21.28h-6.42c-9.78,0-17.71,7.93-17.71,17.71v3.54
		c0,0.41,0.03,0.81,0.08,1.21H54.131z M64.061,84.5c0-3.04-2.46-5.5-5.5-5.5c-3.04,0-5.5,2.46-5.5,5.5s2.46,5.5,5.5,5.5
		C61.601,90,64.061,87.54,64.061,84.5z"/>
	<path class="st132" d="M115.501,32.85c2.73,1.61,3.82,4.89,2.76,7.74l-8.69,22.95c-3.39-4.32-5.51-10.43-5.51-17.19
		c0-3.52,0.58-6.87,1.6-9.87c0.01-0.01,0.01-0.01,0.01-0.02l1.45-1.87C109.121,32.06,112.721,31.21,115.501,32.85z"/>
	<path class="st4" d="M78.191,91h1.16c9.78,0,17.71,7.93,17.71,17.71v3.54c0,0.07,0,0.14,0,0.21c-0.11,5.29-4.43,9.54-9.75,9.54
		h-0.03c-1.06,0-2.05-0.47-2.79-1.23c-0.51-0.52-1.06-0.99-1.65-1.42c-0.77-1.46-1.56-3.17-2.26-5.12c-1.03-2.89-1.6-5.53-1.91-7.73
		c2.59-0.86,4.39-2.78,4.39-5c0-3.04-3.36-5.5-7.5-5.5s-7.5,2.46-7.5,5.5c0,2.22,1.8,4.14,4.39,5c-0.32,2.2-0.88,4.84-1.92,7.73
		c-0.7,1.95-1.49,3.67-2.27,5.14l-0.01,0.01c-0.58,0.41-1.12,0.88-1.62,1.39c-0.74,0.76-1.73,1.23-2.79,1.23h-0.03
		c-4.98,0-9.08-3.72-9.67-8.54c-0.05-0.4-0.08-0.8-0.08-1.21v-3.54c0-9.78,7.93-17.71,17.71-17.71H78.191z M92.061,105.46
		c0-0.81-0.65-1.46-1.46-1.46s-1.46,0.65-1.46,1.46s0.65,1.46,1.46,1.46S92.061,106.27,92.061,105.46z M90.061,113.46
		c0-0.81-0.65-1.46-1.46-1.46s-1.46,0.65-1.46,1.46s0.65,1.46,1.46,1.46S90.061,114.27,90.061,113.46z M86.061,108.46
		c0-0.81-0.65-1.46-1.46-1.46s-1.46,0.65-1.46,1.46s0.65,1.46,1.46,1.46S86.061,109.27,86.061,108.46z M68.011,108.46
		c0-0.81-0.66-1.46-1.46-1.46c-0.81,0-1.47,0.65-1.47,1.46s0.66,1.46,1.47,1.46C67.351,109.92,68.011,109.27,68.011,108.46z
		 M64.011,113.46c0-0.81-0.66-1.46-1.46-1.46c-0.81,0-1.47,0.65-1.47,1.46s0.66,1.46,1.47,1.46
		C63.351,114.92,64.011,114.27,64.011,113.46z M62.011,105.46c0-0.81-0.66-1.46-1.46-1.46c-0.81,0-1.47,0.65-1.47,1.46
		s0.66,1.46,1.47,1.46C61.351,106.92,62.011,106.27,62.011,105.46z"/>
	<circle class="st4" cx="92.061" cy="84.5" r="5.5"/>
	<path class="st4" d="M82.841,119.35c0.04,0.07,0.07,0.13,0.1,0.19c-0.25,0.05-0.51,0.09-0.77,0.13c-1.38,0.22-2.79,0.33-4.23,0.33
		h-5.77c-1.39,0-2.75-0.1-4.09-0.3c0.06-0.1,0.12-0.21,0.17-0.32l0.01-0.01c2.05-1.49,4.57-2.37,7.3-2.37
		C78.281,117,80.791,117.87,82.841,119.35z"/>
	<path class="st99" d="M75.561,96c4.14,0,7.5,2.46,7.5,5.5c0,2.22-1.8,4.14-4.39,5c-0.95,0.32-2,0.5-3.11,0.5s-2.16-0.18-3.11-0.5
		c-2.59-0.86-4.39-2.78-4.39-5C68.061,98.46,71.421,96,75.561,96z"/>
	<g>
		<path class="st133" d="M31.061,75.07c0-8.801,1.543-17.239,4.359-25.069l-3.559-9.411c-1.06-2.85,0.03-6.13,2.76-7.74
			c2.78-1.64,6.38-0.79,8.38,1.74l0.061,0.078C53.665,18.41,70.467,6.566,90.129,2.522C85.285,1.525,80.269,1,75.131,1
			c-40.91,0-74.07,33.16-74.07,74.07c0,40.9,33.16,74.06,74.07,74.06c5.139,0,10.155-0.525,14.998-1.522
			C56.412,140.674,31.061,110.831,31.061,75.07z"/>
	</g>
	<path class="st99" d="M82.841,119.35c-2.05-1.48-4.56-2.35-7.28-2.35c-2.73,0-5.25,0.88-7.3,2.37c0.78-1.47,1.57-3.19,2.27-5.14
		c1.04-2.89,1.6-5.53,1.92-7.73c0.95,0.32,2,0.5,3.11,0.5s2.16-0.18,3.11-0.5c0.31,2.2,0.88,4.84,1.91,7.73
		C81.281,116.18,82.071,117.89,82.841,119.35z"/>
	<circle class="st4" cx="58.561" cy="84.5" r="5.5"/>
	<path class="st99" d="M60.751,57.62l0.01,0.01c-5.7,2.54-10.41,6.92-13.37,12.38C47.281,70,47.171,70,47.061,70
		c-0.01,0-0.03,0-0.04,0c-2.37,0.01-4.54-1.32-5.37-3.54l-1.11-2.92c3.4-4.32,5.52-10.43,5.52-17.19c0-3.52-0.58-6.87-1.6-9.87
		L60.751,57.62z"/>
	<path class="st132" d="M46.061,46.35c0,6.76-2.12,12.87-5.52,17.19l-8.68-22.95c-1.06-2.85,0.03-6.13,2.76-7.74
		c2.78-1.64,6.38-0.79,8.38,1.74l1.45,1.87c0,0.01,0,0.01,0.01,0.02C45.481,39.48,46.061,42.83,46.061,46.35z"/>
	<path class="st134" d="M102.598,68.209c-5.568-8.683-5.034-19.937,1.266-28.104l1.18-1.53c0.184-0.713,0.385-1.416,0.616-2.096
		l-16.32,21.16l-0.01,0.01c5.69,2.54,10.38,6.91,13.33,12.36c0.13-0.01,0.26-0.01,0.4-0.01c0.01,0,0.02,0,0.04,0
		c0.18,0.001,0.356-0.021,0.533-0.035C103.309,69.367,102.964,68.78,102.598,68.209z"/>
	<path class="st135" d="M111.061,46.35c0-3.52,0.58-6.87,1.6-9.87c0.01-0.01,0.01-0.01,0.01-0.02l1.45-1.87
		c0.481-0.608,1.056-1.117,1.688-1.519c-0.105-0.071-0.197-0.155-0.308-0.221c-2.78-1.64-6.38-0.79-8.38,1.74l-1.45,1.87
		c0,0.01,0,0.01-0.01,0.02c-1.02,3-1.6,6.35-1.6,9.87c0,6.76,2.12,12.87,5.51,17.19l2.946-7.779
		C111.582,52.874,111.061,49.693,111.061,46.35z"/>
	<path class="st134" d="M91.561,84.5c0-2.138,1.22-3.986,3-4.896C93.81,79.221,92.962,79,92.061,79c-3.04,0-5.5,2.46-5.5,5.5
		c0,3.04,2.46,5.5,5.5,5.5c0.901,0,1.75-0.221,2.5-0.604C92.78,88.486,91.561,86.638,91.561,84.5z"/>
	<path class="st134" d="M58.061,84.5c0-2.138,1.22-3.986,3-4.896C60.31,79.221,59.462,79,58.561,79c-3.04,0-5.5,2.46-5.5,5.5
		c0,3.04,2.46,5.5,5.5,5.5c0.901,0,1.75-0.221,2.5-0.604C59.28,88.486,58.061,86.638,58.061,84.5z"/>
	<g>
		<path class="st134" d="M68.141,113.46c-0.05-0.4-0.08-0.8-0.08-1.21v-3.54c0-1.699,0.253-3.336,0.7-4.891
			c-0.448-0.705-0.7-1.491-0.7-2.319c0-2.42,2.132-4.468,5.089-5.204c2.499-2.541,5.76-4.321,9.411-4.991
			C81.518,91.114,80.448,91,79.351,91h-1.16h-6.42c-9.78,0-17.71,7.93-17.71,17.71v3.54c0,0.41,0.03,0.81,0.08,1.21
			c0.59,4.82,4.69,8.54,9.67,8.54h0.03c1.06,0,2.05-0.47,2.79-1.23c0.5-0.51,1.04-0.98,1.62-1.39l0.01-0.01
			c0.37-0.697,0.741-1.454,1.105-2.262C68.733,116.008,68.302,114.778,68.141,113.46z M59.081,105.46c0-0.81,0.66-1.46,1.47-1.46
			c0.8,0,1.46,0.65,1.46,1.46s-0.66,1.46-1.46,1.46C59.741,106.92,59.081,106.27,59.081,105.46z M62.551,114.92
			c-0.81,0-1.47-0.65-1.47-1.46s0.66-1.46,1.47-1.46c0.8,0,1.46,0.65,1.46,1.46S63.351,114.92,62.551,114.92z M66.551,109.92
			c-0.81,0-1.47-0.65-1.47-1.46s0.66-1.46,1.47-1.46c0.8,0,1.46,0.65,1.46,1.46S67.351,109.92,66.551,109.92z"/>
	</g>
	<path class="st136" d="M76.451,106.5c-2.59-0.86-4.39-2.78-4.39-5c0-2.531,2.332-4.654,5.5-5.296c-0.638-0.129-1.306-0.204-2-0.204
		c-4.14,0-7.5,2.46-7.5,5.5c0,2.22,1.8,4.14,4.39,5c0.95,0.32,2,0.5,3.11,0.5c0.695,0,1.362-0.078,2-0.209
		C77.179,106.713,76.806,106.62,76.451,106.5z"/>
	<g>
		<path class="st136" d="M74.531,114.23c0.97-2.695,1.512-5.157,1.842-7.263c-0.267,0.021-0.537,0.033-0.812,0.033
			c-1.11,0-2.16-0.18-3.11-0.5c-0.32,2.2-0.88,4.84-1.92,7.73c-0.7,1.95-1.49,3.67-2.27,5.14c1.474-1.072,3.194-1.821,5.058-2.161
			C73.738,116.285,74.148,115.295,74.531,114.23z"/>
	</g>
	<g>
		<path class="st136" d="M60.211,95.312c-0.142-1.145-0.221-2.309-0.221-3.492v-2.014C59.534,89.929,59.056,90,58.561,90
			c-3.04,0-5.5-2.46-5.5-5.5c0-3.04,2.46-5.5,5.5-5.5c0.612,0,1.199,0.104,1.749,0.288c0.491-3.314,1.544-6.446,3.081-9.278
			c2.96-5.46,7.67-9.84,13.37-12.38c1.501-0.674,3.076-1.211,4.704-1.617c-0.066-0.204-0.125-0.411-0.194-0.613c0,0,0-0.01-0.01,0
			c-1.15-0.16-2.32-0.23-3.51-0.23h-5.45c-4.11,0-8.02,0.88-11.54,2.46c-5.7,2.54-10.41,6.92-13.37,12.38
			c-2.17,4-3.4,8.59-3.4,13.46v8.35c0,8.7,3.94,16.48,10.14,21.64h0.01c-0.05-0.4-0.08-0.8-0.08-1.21v-3.54
			C54.061,103.352,56.451,98.56,60.211,95.312z"/>
	</g>
	<path class="st134" d="M78.561,118c0.826,0,1.63,0.089,2.411,0.243C79.334,117.45,77.503,117,75.561,117
		c-2.73,0-5.25,0.88-7.3,2.37l-0.01,0.01c-0.05,0.11-0.11,0.22-0.17,0.32c1.23,0.184,2.479,0.273,3.75,0.288
		C73.771,118.734,76.077,118,78.561,118z"/>
	<g>
		<path class="st134" d="M96.272,88.036C95.264,89.236,93.753,90,92.061,90c-3.04,0-5.5-2.46-5.5-5.5c0-3.04,2.46-5.5,5.5-5.5
			c0.175,0,0.348,0.01,0.518,0.026c1.323-4.2,2.052-8.664,2.052-13.306c0-1.742-0.109-3.466-0.307-5.165
			c-1.557-1.125-3.219-2.113-4.993-2.905c-2.51-1.14-5.22-1.91-8.06-2.25c1.52,4.48,2.36,9.33,2.36,14.32
			c0,7.72-1.98,14.96-5.44,21.28h1.16c9.78,0,17.71,7.93,17.71,17.71v3.54c0,0.07,0,0.14,0,0.21
			c4.57-4.248,7.727-10.008,8.687-16.479C103.662,92.31,100.304,89.469,96.272,88.036z"/>
	</g>
	<path class="st135" d="M38.861,40.59c-1.017-2.734-0.038-5.848,2.452-7.519c-1.997-1.273-4.581-1.466-6.692-0.221
		c-2.73,1.61-3.82,4.89-2.76,7.74l8.68,22.95c1.717-2.182,3.105-4.823,4.061-7.771L38.861,40.59z"/>
	<g>
		<path class="st99" d="M75.131,0C33.737,0,0.061,33.676,0.061,75.07c0,41.388,33.677,75.06,75.07,75.06
			c41.388,0,75.06-33.672,75.06-75.06C150.191,33.676,116.519,0,75.131,0z M75.131,148.13c-40.291,0-73.07-32.774-73.07-73.06
			C2.061,34.779,34.84,2,75.131,2c40.285,0,73.06,32.779,73.06,73.07C148.191,115.355,115.416,148.13,75.131,148.13z"/>
		<path class="st99" d="M58.561,91c3.584,0,6.5-2.916,6.5-6.5s-2.916-6.5-6.5-6.5s-6.5,2.916-6.5,6.5S54.977,91,58.561,91z
			 M58.561,80c2.481,0,4.5,2.019,4.5,4.5s-2.019,4.5-4.5,4.5s-4.5-2.019-4.5-4.5S56.079,80,58.561,80z"/>
		<path class="st99" d="M92.061,78c-3.584,0-6.5,2.916-6.5,6.5s2.916,6.5,6.5,6.5s6.5-2.916,6.5-6.5S95.645,78,92.061,78z
			 M92.061,89c-2.481,0-4.5-2.019-4.5-4.5s2.019-4.5,4.5-4.5s4.5,2.019,4.5,4.5S94.542,89,92.061,89z"/>
		<path class="st99" d="M116.009,31.989c-3.148-1.858-7.311-1.008-9.679,1.989l-1.449,1.87c-0.004,0.006-0.005,0.013-0.009,0.018
			c-0.001,0.001-0.003,0.002-0.004,0.003L89.006,56.437c-2.401-1.01-4.927-1.7-7.533-2.02c-0.054-0.011-0.107-0.017-0.161-0.02
			c-0.007-0.001-0.015-0.001-0.022-0.002c-0.01,0-0.018-0.006-0.028-0.006c-0.003,0-0.006,0.002-0.009,0.002
			c-1.115-0.148-2.261-0.222-3.5-0.222h-5.45c-3.897,0-7.666,0.76-11.219,2.242L45.253,35.87c-0.001-0.001-0.002-0.002-0.003-0.003
			c-0.004-0.006-0.005-0.013-0.01-0.019l-1.455-1.878c-2.362-2.989-6.521-3.84-9.673-1.981c-3.097,1.827-4.438,5.59-3.188,8.955
			l9.789,25.867c0.817,2.187,2.75,3.698,5.114,4.085c-1.855,3.903-2.837,8.216-2.837,12.575v8.351
			c0,8.565,3.726,16.62,10.227,22.167c0.834,5.165,5.311,9.012,10.623,9.012c1.3,0,2.545-0.545,3.504-1.53
			c0.245-0.25,0.497-0.483,0.752-0.701c1.183,0.15,2.396,0.231,3.614,0.231h0.46h5.77c1.468,0,2.927-0.115,4.336-0.336
			c0.004,0,0.007,0,0.01-0.001c0.005-0.001,0.011-0.002,0.017-0.003c0.006-0.001,0.013-0.001,0.02-0.002
			c0.021-0.003,0.042-0.007,0.064-0.011c0.058-0.007,0.117-0.019,0.175-0.027c0.128,0.07,0.271,0.106,0.417,0.113
			c0.278,0.236,0.544,0.478,0.795,0.734c0.962,0.988,2.207,1.533,3.537,1.533c5.655,0,10.363-4.479,10.718-10.089
			c5.742-5.487,9.032-13.147,9.032-21.091V83.47c0-4.352-0.979-8.659-2.828-12.557c2.38-0.364,4.347-1.89,5.174-4.101l9.792-25.874
			C120.447,37.579,119.106,33.815,116.009,31.989z M35.128,33.711c2.295-1.353,5.343-0.71,7.083,1.491l1.345,1.735
			c0.997,2.98,1.505,6.145,1.505,9.412c0,5.555-1.536,10.938-4.246,15.077l-8.017-21.185C31.887,37.792,32.867,35.045,35.128,33.711
			z M42.585,66.104l-0.917-2.425c3.471-4.646,5.393-10.765,5.393-17.33c0-1.856-0.162-3.68-0.467-5.464l12.63,16.391
			c-5.169,2.581-9.516,6.682-12.388,11.712C44.884,68.931,43.227,67.82,42.585,66.104z M44.99,91.82V83.47
			c0-4.539,1.134-9.028,3.279-12.983c2.856-5.268,7.437-9.509,12.9-11.944c3.507-1.574,7.251-2.372,11.131-2.372h5.45
			c0.978,0,1.882,0.061,2.765,0.159c1.398,4.329,2.115,8.829,2.115,13.391c0,7.058-1.753,14.052-5.052,20.28h-5.808
			c-10.316,0-18.71,8.394-18.71,18.71v2.418C47.911,106.045,44.99,99.134,44.99,91.82z M78.352,105.553
			c-1.762,0.594-3.82,0.594-5.582,0c-0.001-0.001-0.003-0.001-0.004-0.002c-2.251-0.747-3.705-2.338-3.705-4.051
			c0-2.481,2.916-4.5,6.5-4.5s6.5,2.019,6.5,4.5C82.061,103.213,80.607,104.804,78.352,105.553z M73.252,107.748
			c0.749,0.162,1.52,0.252,2.309,0.252c0.788,0,1.559-0.089,2.306-0.251c0.39,2.294,0.976,4.583,1.772,6.819
			c0.29,0.808,0.618,1.611,0.965,2.411c-1.589-0.644-3.292-0.979-5.043-0.979c-1.757,0-3.464,0.338-5.056,0.986
			c0.345-0.796,0.674-1.601,0.967-2.417C72.258,112.383,72.847,110.091,73.252,107.748z M72.171,119
			c-0.395,0-0.787-0.026-1.179-0.043c1.43-0.626,2.975-0.957,4.569-0.957c1.562,0,3.078,0.315,4.484,0.915
			C79.348,118.97,78.646,119,77.941,119H72.171z M96.061,112.439c-0.099,4.72-4.023,8.561-8.78,8.561
			c-0.755,0-1.491-0.329-2.076-0.931c-0.448-0.457-0.95-0.887-1.482-1.295c-0.031-0.027-0.056-0.062-0.091-0.085
			c-0.813-1.56-1.527-3.172-2.109-4.794c-0.79-2.219-1.364-4.492-1.733-6.769c2.615-1.14,4.271-3.272,4.271-5.626
			c0-3.584-3.813-6.5-8.5-6.5s-8.5,2.916-8.5,6.5c0,2.354,1.656,4.485,4.269,5.625c-0.385,2.327-0.962,4.602-1.741,6.768
			c-0.596,1.66-1.312,3.282-2.121,4.83c-0.533,0.395-1.055,0.842-1.553,1.35c-0.582,0.599-1.318,0.928-2.104,0.928
			c-4.412,0-8.143-3.294-8.678-7.663c-0.049-0.393-0.072-0.748-0.072-1.087v-3.54c0-9.214,7.496-16.71,16.71-16.71h6.362
			c0.017,0.001,0.031,0.01,0.048,0.01s0.031-0.009,0.048-0.01h1.122c9.214,0,16.71,7.496,16.71,16.71V112.439z M105.061,91.82
			c0,6.721-2.53,13.222-7,18.189v-1.299c0-10.163-8.15-18.442-18.254-18.687c3.148-6.283,4.825-13.261,4.825-20.303
			c0-4.446-0.647-8.837-1.918-13.079c2.145,0.387,4.228,1.022,6.21,1.922c5.446,2.431,10.013,6.666,12.858,11.924
			c2.146,3.955,3.279,8.444,3.279,12.983V91.82z M107.534,66.11c-0.643,1.719-2.313,2.833-4.318,2.881
			c-2.862-5.021-7.198-9.116-12.349-11.693l12.66-16.416c-0.305,1.785-0.467,3.61-0.467,5.468c0,6.564,1.92,12.687,5.39,17.339
			L107.534,66.11z M117.325,40.236l-8.021,21.198c-2.708-4.144-4.243-9.529-4.243-15.083c0-3.267,0.508-6.432,1.505-9.412
			l1.339-1.728c1.746-2.207,4.793-2.853,7.089-1.499C117.254,35.045,118.235,37.792,117.325,40.236z"/>
	</g>
	<circle class="st99" cx="60.546" cy="105.462" r="1.462"/>
	<circle class="st99" cx="66.546" cy="108.462" r="1.462"/>
	<circle class="st99" cx="62.546" cy="113.462" r="1.462"/>
	<circle class="st99" cx="90.598" cy="105.462" r="1.462"/>
	<circle class="st99" cx="84.598" cy="108.462" r="1.462"/>
	<circle class="st99" cx="88.598" cy="113.462" r="1.462"/>
	<path class="st136" d="M48.651,66.46L48.651,66.46c-0.653-1.719-0.479-3.638,0.47-5.213c2.276-3.775,3.693-8.51,3.892-13.669
		L44.461,36.48c1.02,3,1.6,6.35,1.6,9.87c0,6.76-2.12,12.87-5.52,17.19l1.11,2.92c0.83,2.22,3,3.55,5.37,3.54c0.01,0,0.03,0,0.04,0
		c0.11,0,0.22,0,0.33,0.01c0.505-0.932,1.079-1.82,1.683-2.686C48.911,67.053,48.766,66.767,48.651,66.46z"/>
	<circle class="st99" cx="60.309" cy="86.93" r="2.372"/>
	<circle class="st99" cx="93.436" cy="86.93" r="2.372"/>
</g>
</svg>
