<svg xmlns="http://www.w3.org/2000/svg" enable-background="new 0 0 500 421" viewBox="0 0 500 421"><path fill="#cce9ff" d="m12.855 216.953 463.939-5.367s36.5-3.163 17.947 25.99c-18.551 29.158-117.209 40.659-173.36 65.049-57.992 25.186-95.07-12.01-154.262-14.777-59.189-2.771-130.165-20.141-147.295-38.861-23.301-25.466-26.625-31.22-6.969-32.034z"/><path fill="#2a94f4" d="M316.779 227.904c.065 3.721-1.455 9.801-8.636 9.946-7.182.13-23.68 1.651-30.795-.97-5.189-1.913-17.258-5.399-26.038-7.207-3.263-.668-6.067-1.113-7.902-1.153-4.782-.092-9.696-4.39-13.209-7.286-1.415-1.179-2.607-2.123-3.459-2.477-.838-.34-1.468-.747-1.861-1.166-.275-.301-.445-.603-.458-.891-.027-.681.798-1.232 2.659-1.232.525 0 1.062.026 1.6.079 3.262.236 6.735 1.088 8.688 1.035 2.279-.079 8.491 5.386 9.736 5.661.525.118 2.096.577 4.102.734 2.726.196 6.29-.184 9.226-2.805 1.533-1.376 3.734-2.975 6.067-4.56 3.355-2.267 6.972-4.482 9.238-5.831.014 0 .014-.014.014-.014a35.322 35.322 0 0 0 2.411-1.035c.131.315.38.865.76 1.468a7.3 7.3 0 0 0 1.336 1.559c.538.472 1.18.839 1.926 1.022.407.092 1.035.17 1.862.236.156.013.313.013.484.026 1.01.079 2.215.131 3.565.197 1.074.052 2.241.105 3.434.184 5.162.315 10.954.904 13.575 2.529a63.193 63.193 0 0 1 3.971 2.7c1.756 1.297 3.473 2.751 4.849 4.193 1.376 1.455 2.398 2.896 2.739 4.22.064.287.103.562.116.838z"/><path fill="#2a94f4" d="m284.529 213.043-19.262 10.378-25.2-.615-9.868-1.573-1.873-.301s-4.901-3.407-6.002-4.128a45.674 45.674 0 0 0 2.098-.105c-.027-.681.798-1.232 2.659-1.232.525 0 1.062.026 1.6.079.628-.655 2.096-2.071 3.707-3.643-1.126 1.507-2.293 3.185-2.634 3.355-.59.289.315.97 1.35.642 0 0 .97 2.11 3.316 1.337 2.346-.786 3.931-2.503 5.162-2.791.996-.249 5.871-1.271 7.705-1.651.105.065.157.105.157.105s.065-.052.184-.17c.223-.052.353-.079.353-.079s-.013-.092-.026-.236c.223-.223.523-.498.891-.852l.026-.026c.053.013.105.026.158.026 3.84.72 8.308 1.167 12.974.957.708-.026 1.415-.079 2.123-.131a32.451 32.451 0 0 0 1.573-.157c.668-.078 1.323-.17 1.991-.288.353-.053.695-.118 1.035-.184.223-.039.433-.079.655-.131a7.54 7.54 0 0 0 .76-.157c.353-.079.72-.171 1.075-.249.418-.104.838-.223 1.258-.34.38-.118.76-.236 1.153-.354a31.089 31.089 0 0 0 2.109-.747c.014 0 .014-.014.014-.014a35.322 35.322 0 0 0 2.411-1.035c.131.315.38.865.76 1.468a7.3 7.3 0 0 0 1.336 1.559c.538.472 1.18.839 1.926 1.022.485.117 1.298.196 2.346.261zM239.202 208.614c-1.311.013-2.909.196-3.944.498.668-.642 1.298-1.244 1.835-1.769.209.157.458.341.746.525.354.235.8.484 1.363.746z"/><path fill="#2a94f4" d="M247.956 212.414c.013.144.026.236.026.236s-.131.026-.353.079c.078-.079.183-.184.327-.315zM291.524 213.424c-7.197 1.986-13.207 7.435-13.207 7.435l-9.014 1.623 14.74-9.469c.156.013.317.022.486.035 1.006.069 2.222.125 3.565.191 1.078.052 2.237.111 3.43.185z"/><path fill="#ffbe55" d="M280.534 217.238c-.297.071-.612.155-.937.241-3.75.339-19.587 9.184-19.587 9.184l-.026.013c-2.436.864-5.451 1.897-8.664 3.002-8.055 2.731-17.34 5.844-21.543 7.616-7.742 3.239-26.521 1.725-29.423.551-2.109-.864-3.75-4.657-4.161-7.97-.141-1.217-.125-2.378.1-3.283.494-2.051 3.028-4.515 6.099-6.369 1.984-1.204 4.203-2.167 6.255-2.603 2.818-.612 7.858-.653 12.129-.765l1.543-.044a73.055 73.055 0 0 0 2.109-.113c1.868-.113 3.271-.311 3.765-.693.028-.015.041-.029.056-.043l.131.027 1.694.638 11.098 4.089c4.727 3.751 10.358 1.954 12.751 1.543 3.483-.594 4.374-1.642 5.265-3.042.297-.48.609-1.006 1.034-1.572a10.283 10.283 0 0 1 2.378-1.712c0-.013.013-.013.013-.013.978-.256 2.193-.226 3.893-.312.509-.028 1.019-.028 1.5-.028.453 0 .922-.042 1.4-.113.074-.014.159-.028.215-.044h.043c.691.03 1.144.057 1.144.057-.637.978.527.269.031-.013 6.324-2.576 9.099-.863 9.695-.397.054.043.097.073.113.099.013 0 .013.015.013.015s.013.014.043.028c.041.043.113.083.184.17.722.751.893 1.559-.353 1.856z"/><path fill="#eddad3" d="M280.703 215.214c-.031-.013-.043-.028-.043-.028s0-.015-.013-.015c.025 0 .043.015.056.043z"/><path fill="#2a94f4" d="M259.977 226.676a699.704 699.704 0 0 1-8.664 2.995c-8.052 2.74-17.333 5.857-21.538 7.623-2.214.929-5.331 1.468-8.722 1.735-.013 0-.026.003-.041.003a67.194 67.194 0 0 1-3.202.171l-.202.006c-4.492.13-9.089-.117-12.462-.493-.008-.003-.018-.003-.031-.006-2.298-.255-4.029-.573-4.755-.865-2.117-.856-3.755-4.661-4.164-7.967-.148-1.223-.133-2.376.092-3.29.502-2.055 3.03-4.508 6.104-6.367l.003-.004c1.983-1.201 4.203-2.156 6.25-2.601 2.813-.61 7.852-.645 12.137-.762.525-.012 1.042-.03 1.536-.047h.003c.747-.026 1.456-.06 2.101-.1 1.871-.12 3.276-.318 3.773-.697.023-.017.046-.033.064-.051l.115.038 1.707.635 11.088 4.088c3.931 3.108 8.477 2.397 11.274 1.832.576-.115 1.075-.226 1.482-.296.878-.151 1.595-.327 2.181-.533l3.871 4.953z"/><path fill="#0e538c" d="M270.355 222.37s18.318-3.306 22.597-1.439c4.284 1.861 7.458 6.143 11.671 5.729 4.213-.415.054-2.337-2.951-3.139-3.005-.797-5.344-4.423-13.288-4.163-7.947.262-13.276 1.605-13.276 1.605s-3.563.929-4.753 1.407z"/><path fill="#ffbe55" d="M229.504 220.657s-1.559-1.483-2.905-1.899c-1.346-.418-3.499-2.497-1.052-3.114 3.069-.777 8.648 1.175 10.166 1.142 1.52-.035 4.287.649 6.421 2.156 2.14 1.507 4.773 3.694 6.46 3.652 0 0-.107.408-1.213.371-1.103-.035-17.271-1.811-17.271-1.811l-.606-.497z"/><path fill="#0e538c" d="M256.831 221.367s-3.097 2.738-15.111 1.563c-12.014-1.172-17.952-3.139-24.235-.635-6.286 2.5-5.457 3.192-8.63 3.192-3.182 0 2.001-3.938 8.768-5.11 6.765-1.174 23.544 2.07 25.477 2.07 1.935 0 9.429.736 13.731-1.08z"/><path fill="#2a94f4" d="M262.096 229.389s-19.577 8.136-41.043 9.64c-.013 0-.026.003-.041.003-1.06.073-2.13.13-3.202.171l-.202.006c-4.162.15-8.357.015-12.462-.493-.008-.003-.018-.003-.031-.006 0 0 35.09-12.605 47.326-16.158 1.692-.488 2.946-.807 3.611-.894l.051.065 3.872 4.953 2.121 2.713z"/><path fill="#eddad3" d="M270.839 215.469c.497.282-.668.99-.031.013l.015-.013h.016zM279.597 217.479c.325-.086.64-.17.937-.241 1.246-.297 1.075-1.105.353-1.854.566.481 1.797 1.828-1.29 2.095z"/><path fill="#f1b99e" d="M190.166 175.67c-1.939.394-4.009.852-4.626.996-1.218.288-2.817 2.005-5.162 2.791-2.346.773-3.316-1.337-3.316-1.337-1.035.328-1.939-.354-1.35-.655.59-.289 3.683-5.098 4.666-5.779.97-.694 4.835-1.022 6.395-.76a75.22 75.22 0 0 0 2.595.38c-.001 1.573.418 3.538.798 4.364zM247.287 212.794c-1.834.38-6.71 1.402-7.705 1.651-1.231.288-2.817 2.005-5.162 2.791-2.346.773-3.316-1.337-3.316-1.337-1.035.328-1.94-.354-1.35-.642.34-.17 1.507-1.847 2.634-3.355.813-1.113 1.612-2.149 2.018-2.437.184-.131.485-.249.852-.354 1.035-.301 2.634-.485 3.944-.498.695.34 1.533.681 2.516 1.035 0-.014.014-.014.014-.014a6.61 6.61 0 0 0 1.323-.157c-.079.079-.132.144-.145.157-.078.026.21.275.682.629.038.026.078.052.118.092a82.22 82.22 0 0 0 3.066 2.097c.223.146.393.263.511.342z"/><path fill="#2a94f4" d="M243.496 150.204a30.96 30.96 0 0 0-1.083.756c.02-.221.028-.339.028-.339l1.055-.417zM249.191 147.955s-.002.053-.002.15c-.148.004-.289.011-.425.02l.427-.17z"/><path fill="#0e538c" d="M262.056 142.739c.196.144.315.196.315.196a26.105 26.105 0 0 1-.512 1.559c-.642-12.069-2.699-25.448-8.438-30.258 0 0 12.684-4.534 15.398 12.646 1.31 7.404 2.621 15.529 3.669 22.343-2.832-2.28-6.828-4.901-10.432-6.486z"/><path fill="#f1b99e" d="M262.371 142.935c-3.316 11.047-11.021 18.006-13.629 18.779-2.608.773-2.608-12.698-.852-14.742.315-.367.525-.891.643-1.494a6.46 6.46 0 0 0 .157-.93c.17-1.887-.157-4.193-.38-5.425l-.17-.891s10.628-13.274 10.601-5.137c-.026 6.605 2.398 8.977 3.289 9.632.014 0 .014.013.027.013.195.143.314.195.314.195z"/><path fill="#c48a6f" d="M255.331 137.854c-.044.079-2.808 5.077-6.353 6.385.161-1.688-.141-3.752-.338-4.858l6.691-1.527z"/><path fill="#f1b99e" d="M240.481 113.956s-1.935 13.527.84 20.299c4.451 10.867 8.139 8.271 13.117 4.418 7.192-5.561 2.662-24.411 2.662-24.411l-16.619-.306z"/><path fill="#0e538c" d="M238.04 124.681s3.496 5.091 10.325 2.638c6.777-2.435 6.939 8.842 8.313 9.508 1.377.668 5.352-14.795 2.808-19.111s-7.527-9.968-14.143-7.406c-7.239 2.806-9.297 8.179-7.303 14.371z"/><path fill="#eea886" d="M252.966 128.829c-.228-1.796 2.641-3.092 3.322-1.617.681 1.473-.527 6.02-1.986 5.203-1.461-.814-1.336-3.586-1.336-3.586z"/><path fill="#ffbe55" d="M280.546 207.487a35.076 35.076 0 0 1-4.795 2.28s0 .014-.014.014c-.694.275-1.401.524-2.109.747-.393.118-.773.236-1.153.354-.42.118-.84.236-1.258.34-.355.079-.722.171-1.075.249-.249.065-.51.118-.76.157-.223.053-.432.092-.655.131-.34.066-.682.131-1.035.184-.668.105-1.323.21-1.991.288-.525.066-1.049.118-1.573.157-.708.052-1.415.105-2.123.131-4.666.21-9.133-.236-12.974-.957-.053 0-.105-.013-.158-.026l-.026.026c-.367.354-.668.629-.891.852-.145.131-.25.236-.328.315-.119.118-.184.17-.184.17s-.052-.04-.157-.105c-.118-.079-.288-.197-.511-.34a82.22 82.22 0 0 1-3.066-2.097c-.04-.04-.079-.066-.118-.092-.472-.354-.76-.603-.682-.629.013-.013.065-.078.145-.157a6.684 6.684 0 0 1-1.323.157s-.014 0-.014.014c-.983-.354-1.821-.695-2.516-1.035a10.358 10.358 0 0 1-1.363-.747 11.416 11.416 0 0 1-.746-.525c-.603-.432-.918-.708-.918-.708s5.557-11.951 6.04-13.746c.262-.93.067-4.455-.209-7.705-.249-3.027-.564-5.818-.617-6.08-.105-.538-4.73-5.347-5.019-9.252-.052-.576.092-1.442.367-2.516a301.647 301.647 0 0 0-4.521 3.224c-.943.694-3.459 2.712-6.185 4.73-3.591 2.647-7.535 5.294-8.767 4.98-4.822-1.271-26.104-4.128-26.759-4.194-.105-.013-.209-.157-.34-.406-.38-.826-.798-2.791-.798-4.364 0-1.061.208-1.926.746-2.162 1.573-.668 22.605 2.437 25.868.957 2.333-1.062 10.366-7.574 14.69-11.152 1.193-.983 2.11-1.743 2.543-2.11 1.244-1.022 5.202-5.451 9.199-8.465.367-.275.72-.524 1.088-.773l4.639-1.887.393-.236c-.118.603-.328 1.128-.643 1.494-1.756 2.044-1.756 15.515.852 14.742 2.476-.734 9.579-7.076 13.117-17.219.184-.511.354-1.022.512-1.559 0 0-.119-.052-.315-.196 3.604 1.586 7.6 4.206 10.431 6.487.97.773 1.795 1.493 2.437 2.136.63.629 1.049 1.153 1.245 1.546 1.835 2.123 2.188 5.583 2.071 7.955-.04.694-.118 1.297-.21 1.729-.498 2.293-1.074 7.312-1.533 10.418-.471 3.262-1.664 11.217-2.398 13.209-.17.432-1.572 1.992-3.642 4.14.458 2.044 2.436 5.215 2.909 7.404.864 3.944 7.18 9.723 7.18 9.723z" opacity=".8"/><path fill="#ffbe55" d="M264.194 179.326c-.087 2.085-2.188 5.305-3.266 6.646-.988 1.233-16.968 23.406-17.244 23.521-.073.03.206.275.658.619a37.22 37.22 0 0 1-1.768-.603c0-.008.145.134.15.131.28-.115 16.115-22.435 17.107-23.668 1.079-1.342 3.175-4.562 3.27-6.646.043-1.026.28-5.601.532-10.238.22-4.091 1.033-9.766 1.033-9.766.259-2.215.577-7.662 5.96-7.246-4.333.36-4.622 5.192-4.862 7.246"/><path fill="#0b4870" d="M370.838 181.61c-.704-1.95-2.053-3.594-3.007-5.434-.957-1.842-1.492-4.135-.489-5.949.939-1.698 3.033-2.632 3.637-4.475.655-1.999-.722-4.023-1.866-5.788-1.142-1.766-2.073-4.217-.722-5.828.456-.543 1.106-.887 1.589-1.406 1.725-1.852.63-4.826-.54-7.068 0 0-.512-1.528-2.145-1.692-1.569-.48-2.631.732-2.631.732-1.945 1.615-4.103 3.938-3.23 6.312.246.664.717 1.234.926 1.911.622 2.008-1.185 3.908-2.92 5.096-1.735 1.186-3.788 2.522-3.957 4.617-.156 1.932 1.418 3.605 1.625 5.532.225 2.063-1.157 3.971-2.749 5.301-1.592 1.327-3.473 2.321-4.876 3.848-1.403 1.529-2.242 3.874-1.236 5.688.699 1.259 2.163 2.053 2.554 3.439.671 2.366-1.553 3.599-2.262 5.453-.745 1.943.468 4.142 1.809 5.603 3.583 3.906 7.54 4.673 12.06 1.583 3.872-2.648 1.359-6.643 3.688-9.565.896-1.126 2.554-1.291 3.683-2.184 1.63-1.287 1.766-3.774 1.059-5.726z"/><path fill="#cce9ff" d="M366.551 148.019a57.56 57.56 0 0 0-1.873 6.562c-.253 1.11-.494 2.218-.555 3.331-.059 1.097.077 2.237.187 3.364.256 2.259.363 4.63-.128 6.934-.246 1.149-.624 2.293-1.264 3.334a7.096 7.096 0 0 1-.533.751c-.184.229-.443.481-.594.659-.361.369-.645.829-.919 1.286a12.132 12.132 0 0 0-1.387 6.264c.044.526.105 1.055.248 1.545.059.252.148.488.248.717l.159.39c.061.145.123.289.174.435.392 1.171.586 2.387.553 3.607-.049 1.214-.279 2.452-.87 3.567-.276.562-.678 1.067-1.121 1.515-.246.203-.471.43-.75.585l-.699.438c-.804.551-1.2 1.605-1.298 2.686-.12 1.089.003 2.229.238 3.335v.003a.067.067 0 0 1-.051.081c-.033.008-.064-.01-.079-.041a9.793 9.793 0 0 1-.727-3.404 5.55 5.55 0 0 1 .269-1.801c.182-.602.571-1.157 1.055-1.597l.704-.543c.212-.138.379-.335.563-.505.328-.385.624-.8.819-1.28.433-.932.596-2 .589-3.057a9.072 9.072 0 0 0-.525-3.112l-.299-.763c-.12-.3-.223-.6-.289-.906-.161-.608-.217-1.222-.253-1.831a13.285 13.285 0 0 1 1.789-6.872c.328-.509.663-1.019 1.113-1.458.228-.244.386-.386.566-.594.174-.197.33-.408.476-.63.586-.888.973-1.927 1.236-2.998.253-1.075.389-2.186.427-3.303.041-1.115-.038-2.241-.118-3.381-.064-1.141-.159-2.284-.054-3.463.115-1.166.41-2.284.706-3.386a57.36 57.36 0 0 1 2.14-6.511.07.07 0 0 1 .09-.037.069.069 0 0 1 .037.084z"/><path fill="#0b4870" d="M318.905 181.61c.704-1.95 2.053-3.594 3.007-5.434.957-1.842 1.492-4.135.491-5.949-.939-1.698-3.036-2.632-3.64-4.475-.655-1.999.722-4.023 1.866-5.788 1.142-1.766 2.073-4.217.724-5.828-.456-.543-1.108-.887-1.592-1.406-1.722-1.852-.63-4.826.54-7.068 0 0 .512-1.528 2.145-1.692 1.569-.48 2.634.732 2.634.732 1.945 1.615 4.1 3.938 3.227 6.312-.246.664-.714 1.234-.924 1.911-.624 2.008 1.185 3.908 2.92 5.096 1.735 1.186 3.788 2.522 3.957 4.617.156 1.932-1.418 3.605-1.628 5.532-.223 2.063 1.157 3.971 2.749 5.301 1.592 1.327 3.473 2.321 4.876 3.848 1.405 1.529 2.242 3.874 1.236 5.688-.699 1.259-2.16 2.053-2.554 3.439-.671 2.366 1.556 3.599 2.263 5.453.745 1.943-.469 4.142-1.807 5.603-3.586 3.906-7.54 4.673-12.063 1.583-3.872-2.648-1.359-6.643-3.688-9.565-.896-1.126-2.554-1.291-3.683-2.184-1.627-1.287-1.76-3.774-1.056-5.726z"/><path fill="#cce9ff" d="M323.192 148.019a56.967 56.967 0 0 1 1.876 6.562c.251 1.11.491 2.218.555 3.331.056 1.097-.079 2.237-.189 3.364-.256 2.259-.363 4.63.128 6.934.246 1.149.625 2.293 1.264 3.334.161.261.338.511.535.751.184.229.44.481.591.659.361.369.645.829.921 1.286a12.162 12.162 0 0 1 1.387 6.264c-.046.526-.105 1.055-.251 1.545a4.326 4.326 0 0 1-.246.717l-.161.39c-.061.145-.123.289-.172.435a10.394 10.394 0 0 0-.555 3.607c.051 1.214.282 2.452.87 3.567.276.562.678 1.067 1.123 1.515.246.203.468.43.75.585l.696.438c.804.551 1.2 1.605 1.298 2.686.12 1.089-.003 2.229-.235 3.335l-.003.003a.067.067 0 0 0 .051.081.068.068 0 0 0 .079-.041 9.793 9.793 0 0 0 .727-3.404 5.55 5.55 0 0 0-.269-1.801c-.182-.602-.571-1.157-1.055-1.597l-.701-.543c-.215-.138-.381-.335-.563-.505-.33-.385-.627-.8-.822-1.28-.432-.932-.594-2-.589-3.057a9.072 9.072 0 0 1 .525-3.112l.299-.763c.12-.3.223-.6.289-.906.161-.608.217-1.222.256-1.831a13.316 13.316 0 0 0-1.791-6.872c-.328-.509-.663-1.019-1.111-1.458-.23-.244-.386-.386-.568-.594a5.81 5.81 0 0 1-.476-.63c-.586-.888-.973-1.927-1.234-2.998a16.803 16.803 0 0 1-.428-3.303c-.043-1.115.036-2.241.115-3.381.064-1.141.159-2.284.054-3.463-.115-1.166-.407-2.284-.704-3.386a57.57 57.57 0 0 0-2.142-6.511.066.066 0 0 0-.087-.037.069.069 0 0 0-.037.084z"/><path fill="#2a94f4" d="M359.098 174.34c-1.421-2.344-3.596-4.123-5.316-6.259-1.717-2.135-3.008-4.969-2.181-7.582.773-2.444 3.248-4.201 3.547-6.748.328-2.759-1.983-5.024-3.923-7.014-1.94-1.99-3.788-4.923-2.457-7.364.448-.823 1.206-1.436 1.697-2.236 1.748-2.847-.443-6.419-2.541-9.018 0 0-1.062-1.849-3.22-1.636-2.158-.213-3.22 1.636-3.22 1.636-2.101 2.6-4.292 6.171-2.542 9.018.491.799 1.246 1.413 1.697 2.236 1.328 2.44-.517 5.374-2.457 7.364-1.94 1.99-4.251 4.255-3.926 7.014.302 2.547 2.777 4.304 3.55 6.748.827 2.613-.463 5.448-2.183 7.582-1.717 2.136-3.895 3.915-5.316 6.259-1.421 2.344-1.897 5.603-.12 7.692 1.234 1.45 3.335 2.097 4.205 3.791 1.484 2.893-1.075 5.068-1.51 7.656-.461 2.712 1.687 5.245 3.801 6.789 5.664 4.127 10.99 4.091 16.045-1.093 4.328-4.438.031-8.959 2.286-13.354.87-1.692 2.974-2.339 4.205-3.789 1.776-2.089 1.299-5.348-.121-7.692z"/><path fill="#0e538c" d="M322.992 199.592h43.423v5.837h-43.423z"/><path fill="#cce9ff" d="M343.335 198.461c-.85-1.272 0 0-.363-1.532a7.346 7.346 0 0 1-.12-2.402c.079-.827.438-1.651.95-2.346l.77-.886c.241-.235.404-.534.599-.801.325-.585.602-1.202.729-1.872.317-1.321.251-2.747-.033-4.116a12.06 12.06 0 0 0-1.492-3.897l-.586-.911a7.707 7.707 0 0 1-.612-1.097c-.368-.749-.599-1.529-.806-2.307a17.596 17.596 0 0 1 .532-9.373c.289-.745.591-1.492 1.06-2.177.233-.376.399-.603.581-.919.169-.301.323-.613.453-.939.53-1.304.758-2.751.816-4.206a22.143 22.143 0 0 0-.305-4.392c-.236-1.455-.635-2.895-1.031-4.35-.379-1.463-.799-2.919-.97-4.475-.156-1.54-.067-3.067.028-4.57a76.212 76.212 0 0 1 1.08-8.995.092.092 0 0 1 .105-.074.09.09 0 0 1 .072.101 76.092 76.092 0 0 0-.719 8.991c-.036 1.503-.059 3.005.146 4.461.215 1.437.686 2.879 1.121 4.311.921 2.86 1.679 5.906 1.641 9.018-.018 1.554-.21 3.134-.77 4.651a8.746 8.746 0 0 1-.494 1.109c-.179.347-.448.738-.596 1.01-.371.573-.619 1.245-.857 1.907-.816 2.723-.873 5.756-.166 8.478.195.672.41 1.339.724 1.938.143.312.32.594.507.865l.312.465c.115.17.233.34.335.518a13.828 13.828 0 0 1 1.659 4.529c.251 1.589.274 3.25-.2 4.849-.212.801-.602 1.559-1.06 2.256-.266.329-.496.681-.819.953l-.791.749c-.896.925-1.136 2.393-.98 3.82.128 1.442.514-.64 1.106.731"/><path fill="#0e538c" d="M357.15 230.614h-24.893l-5.131-25.185h35.153z"/><path fill="#ffbe55" fill-rule="evenodd" d="M143.384 234.579c2.964-.017 10.565-.523 11.052 3.056l5.984-.04c1.868-3.382-7.55-4.425-9.301-4.638l.919-1.78c-2.242.233-4.08.499-5.475.848a18.713 18.713 0 0 1-3.179 2.554zM180.163 232.013c.09.645.197 1.266.322 1.842 2.821.847 4.044 2.232 4.397 3.378 1.994.093 4.328.115 4.894-.243 1.026-.645.919-4.205-5.147-5.523.264-1.877.857-6.403.857-6.403a13.453 13.453 0 0 1-4.466 4.014 59.579 59.579 0 0 1-.857 2.935z" clip-rule="evenodd"/><path fill="#fcd2b1" fill-rule="evenodd" d="M200.135 189.867c-2.416 3.008-8.541 5.006-11.842 5.899 0 0 1.94 11.442 2.554 15.287.363 2.287.256 7.927-2.9 12.387a13.4 13.4 0 0 1-4.466 4.013 57.322 57.322 0 0 1-.855 2.935 40.072 40.072 0 0 1-.555 1.61c.307.073.602.151.878.234 2.818.846 4.044 2.232 4.397 3.377.269.868.038 1.6-.374 1.858-1.031.65-7.942.043-7.942.043-1.208-1.171-1.745-4.686-1.979-8.094-.2.024-.404.047-.612.065-2.088.184-4.085.344-5.984.489-2.142.162-4.164.305-6.053.436h-.005c-.033.005-.067.005-.1.009-3.711.26-6.918.488-9.562.76a57.47 57.47 0 0 0-3.588.467c-.699.115-1.328.242-1.886.381a18.788 18.788 0 0 1-3.179 2.553c2.961-.017 10.563-.523 11.052 3.057.023.182.031.378.018.582 0 0-7.415.15-13.854-.041-1.006-.03-1.991-.067-2.92-.115 0 0-.415-.087-.901-.34-.87-.452-1.978-1.431-1.387-3.395-5.748-4.411-4-10.043-4-10.043s-.33-1.305.886-3.11c.077-.112.159-.226.248-.343.589-.772 1.459-1.621 2.751-2.486 2.083-1.397 5.252-2.846 10.069-4.099 1.38-.359 2.705-.715 3.98-1.07a125.707 125.707 0 0 0 5.667-1.698 69.376 69.376 0 0 0 3.872-1.379c1.72-.674 3.286-1.384 4.702-2.156 4.407-2.399 7.322-5.372 8.702-9.599 1.211 2.2 2.027 3.791 3.087 3.997 1.482.288 6.12-4.889 3.916-10.895-1.533-4.183-2.897-5.797-3.57-6.872 0 0 .873-1.417 1.241-1.93a9.99 9.99 0 0 1 1.008-1.189c1.044-1.044 2.605-2.102 4.679-2.161.281-.01.553-.012.816-.01.141 0 .274.003.41.006 2.79.073 4.732.656 5.365.871a22.99 22.99 0 0 1 2.472-1.991c1.723-1.183 3.657-2.056 5.447-1.832l2.367 1.14c2.508 2.615.791 8.827-2.07 12.392z" clip-rule="evenodd"/><path fill="#ffbe55" d="M137.974 218.344c-1.292.865-2.163 1.714-2.751 2.486a7.85 7.85 0 0 0-.248.343c-1.011-1.312-3.194-4.194-3.358-4.47-.988-1.687-1.807-3.502-2.296-5.418-.481-1.887-.886-4.626-.2-6.439.113-.302.34-.544.632-.63.627-.182 1.09.412 1.308.995.77 2.057 1.021 4.21 1.735 6.277.98 2.835 2.969 5.047 5.178 6.856z"/><path fill="#0b4870" d="M202.203 177.478c-.197-.301-.376-.567-.525-.795-1.042-1.619-1.81-.658-1.81-.658l-.824.795c0-.001.182 3.155 3.159.658z"/><path fill="#262525" fill-rule="evenodd" d="M185.057 184.434c.389.227.909.063 1.157-.365.253-.43.143-.961-.246-1.188-.387-.228-.906-.064-1.159.365-.248.429-.138.961.248 1.188z" clip-rule="evenodd"/><path fill="#0e538c" d="M185.438 184.553a.762.762 0 0 1-.389-.105c-.394-.231-.509-.775-.253-1.212.256-.436.786-.604 1.182-.37.192.112.323.3.371.528a.971.971 0 0 1-.118.682.967.967 0 0 1-.54.437.791.791 0 0 1-.253.04z"/><path fill="#ffbe55" d="M166.018 218.366c-4.092 2.631-7.361 2.12-9.931 0-2.567-2.124-1.167-4.084-3.035-4.589a2.246 2.246 0 0 1-1.029-.602c5.787-1.606 10.54-3.215 14.241-5.232.818 1.891 3.211 8.197-.246 10.423z"/><path fill="#2a94f4" d="M179.501 189.115h4.681v16.442h-4.681z" transform="rotate(-83.252 181.845 197.331)"/><path fill="#ffbe55" d="M179.086 182.52c.345.074.676.234.983.497 2.426 2.089 3.322 5.643 3.399 8.934.085 3.496-.617 7.972-2.557 11.112-.76 1.234-1.449 2.263-2.71 1.563-.842-.465-1.479-1.242-2.28-1.76-1.298-.836-2.557-2.152-2.516-3.907.049-2.146.266-4.31.233-6.479-.031-2.126-.225-5 .875-7.018.862-1.584 2.879-3.298 4.573-2.942z"/></svg>